# xmcd
#
# Track frame offsets: 
#        150
#        13174
#        48726
#        67789
#        88984
#        120774
#        140680
#        166040
#        195441
#        209865
#        241557
#        254643
#
# Disc length: 3711 seconds
#
# Revision: 0
# Processed by: cddbd v1.5.2PL0 Copyright (c) Steve Scherf et al.
# Submitted via: ExactAudioCopy v1.3
#
DISCID=a50e7d0c
DTITLE=Carlos Johnson - My Name Is Carlos Johnson
DYEAR=2001
DGENRE=Chicago Blues
TTITLE0=Hey Pretty Baby II
TTITLE1=As The Years Go Passing By
TTITLE2=All Right OK You Win, Going To New York
TTITLE3=My Name Is Carlos Johnson
TTITLE4=Sometimes I Wonder
TTITLE5=The Thrill Is Gone
TTITLE6=Carlos Johnson Boogie
TTITLE7=Gonna Move To The Outskirts Of Town
TTITLE8=She Wants To Sell My Monkey
TTITLE9=Ain't Nobody Business
TTITLE10=Hey Pretty Baby I
TTITLE11=Summertime
EXTD=
EXTT0=
EXTT1=
EXTT2=
EXTT3=
EXTT4=
EXTT5=
EXTT6=
EXTT7=
EXTT8=
EXTT9=
EXTT10=
EXTT11=
PLAYORDER=
